<svg width="3000" height="2140" viewBox="0 0 3000 2140" fill="none" xmlns="http://www.w3.org/2000/svg">
<g clip-path="url(#clip0_40_31)">
<path d="M1010.12 534.965C1012.53 535.909 1014.61 537.555 1016.11 539.695C1017.6 541.835 1018.43 544.374 1018.5 546.993C1023.93 582.434 1029.72 617.818 1035.35 653.227C1039.35 678.378 1043.32 703.533 1047.27 728.693C1048.65 737.479 1053.95 740.767 1062.22 737.582C1104.19 721.405 1146.14 705.173 1188.08 688.887C1203.27 683.011 1218.47 677.162 1233.68 671.338C1240.1 668.889 1244.58 670.185 1247.27 675.041C1248.59 677.382 1248.96 680.153 1248.28 682.76C1247.61 685.368 1245.95 687.604 1243.67 688.99C1206.23 719.836 1168.76 750.645 1131.27 781.418C1121.03 789.826 1110.79 798.219 1100.53 806.596C1099.14 807.522 1098 808.791 1097.23 810.282C1096.45 811.774 1096.07 813.441 1096.1 815.126C1096.14 816.811 1096.6 818.459 1097.43 819.916C1098.27 821.372 1099.46 822.59 1100.89 823.454C1147.12 861.406 1193.34 899.37 1239.55 937.346C1241.36 938.83 1243.16 940.329 1244.85 941.945C1246.78 943.476 1248.08 945.684 1248.48 948.135C1248.89 950.585 1248.37 953.1 1247.04 955.184C1245.86 957.269 1243.95 958.824 1241.69 959.533C1239.43 960.242 1236.99 960.052 1234.86 959C1225.25 955.368 1215.66 951.686 1206.08 947.954C1159.07 929.729 1112.07 911.497 1065.06 893.259C1063.46 892.576 1061.82 891.98 1060.15 891.472C1058.71 890.976 1057.18 890.83 1055.68 891.046C1054.18 891.262 1052.75 891.834 1051.51 892.715C1050.26 893.596 1049.24 894.762 1048.53 896.117C1047.82 897.472 1047.43 898.979 1047.4 900.515C1045.73 923.62 1044.24 946.736 1042.68 969.849C1040.84 997.281 1038.94 1024.71 1037.17 1052.15C1035.45 1078.8 1034.09 1105.48 1032.15 1132.12C1029.9 1163.06 1028.43 1194.05 1025.67 1224.95C1023.76 1246.27 1022.99 1267.69 1021.67 1289.06C1020.54 1307.48 1019.41 1325.91 1018.15 1344.33C1018.18 1345.66 1017.95 1346.99 1017.46 1348.23C1016.98 1349.47 1016.25 1350.61 1015.33 1351.56C1014.41 1352.52 1013.31 1353.28 1012.09 1353.8C1010.88 1354.32 1009.57 1354.59 1008.26 1354.6C1006.94 1354.67 1005.62 1354.47 1004.39 1354C1003.15 1353.53 1002.03 1352.8 1001.09 1351.87C1000.16 1350.93 999.423 1349.8 998.942 1348.56C998.462 1347.32 998.245 1345.98 998.305 1344.65C996.727 1322.32 995.389 1299.97 993.823 1277.64C992.025 1251.98 990.622 1226.29 988.505 1200.64C986.325 1174.22 985.095 1147.73 983.369 1121.27C981.172 1087.56 978.867 1053.87 976.661 1020.16C975.391 1000.76 974.266 981.349 973.003 961.945C971.753 942.75 970.628 923.544 969.035 904.378C967.954 891.361 963.397 888.594 951.378 893.214C922.054 904.485 892.797 915.941 863.499 927.283C837.102 937.502 810.691 947.686 784.267 957.835C774.619 961.528 772.085 960.471 766.999 951.382V947.837C769.025 944.293 771.73 941.196 774.957 938.728C786.179 929.706 797.26 920.503 808.387 911.36C844.03 882.07 879.674 852.782 915.319 823.495C916.699 822.574 917.835 821.325 918.627 819.856C919.42 818.388 919.846 816.745 919.867 815.071C919.888 813.397 919.503 811.744 918.748 810.255C917.992 808.767 916.888 807.489 915.531 806.532C871.277 770.244 827.034 733.941 782.805 697.622C776.717 693.506 771.372 688.364 766.999 682.419V677.7C773.2 668.92 774.718 668.326 785.233 672.35C811.831 682.53 838.37 692.869 864.93 703.15C894.74 714.689 924.524 726.291 954.37 737.738C961.988 740.661 966.875 738.034 968.543 729.962C970.401 720.974 971.739 711.871 973.171 702.796C980.894 653.863 988.483 604.907 996.37 556.001C997.568 548.574 996.492 539.954 1004.3 534.964L1010.12 534.965Z" fill="black"/>
<path d="M1417.59 946.051H2768.68C2755.75 975.794 2732.03 1017.59 2697.53 1071.44C2564.81 1278.45 2413.04 1406.5 2242.23 1455.58C2071.38 1504.68 1691.89 1529.22 1103.75 1529.22C547.904 1529.22 209.305 1500.18 87.9579 1442.12C-33.4181 1384.05 -29.1799 1253.76 100.672 1051.24L206.802 882.099L274.395 780.28C383.38 610.291 544.003 497.248 756.264 441.151C968.508 385.058 1341.78 357.008 1876.08 357C2411.9 357 2745.78 375.373 2877.74 412.119C3009.67 448.869 3034.82 530.915 2953.19 658.258L2925.14 702.015H2576.4L2594.74 673.404C2654.8 579.724 2639.2 521.8 2547.94 499.634C2456.67 477.48 2188.55 466.401 1743.58 466.395C1332.48 466.395 1063.93 484.206 937.93 519.829C811.909 555.465 703.231 644.525 611.895 787.008L509.622 939.322L406.728 1103.41C313.933 1248.16 314.279 1337.07 407.765 1370.17C501.225 1403.28 796.633 1419.83 1293.99 1419.82C1674.27 1419.82 1919.53 1404.11 2029.77 1372.69C2139.99 1341.29 2237.72 1259.1 2322.96 1126.13C2329.79 1115.48 2338.74 1091.92 2349.8 1055.45H1347.45L1417.59 946.051Z" fill="black"/>
<path d="M359.415 1717.49L359.584 1741.5C359.584 1755.68 357.192 1766.14 352.409 1772.88C347.625 1779.63 338.31 1783 324.464 1783H268.403C258.154 1783.23 247.91 1782.37 237.84 1780.43C230.576 1778.9 224.118 1774.72 219.687 1768.7C215.128 1762.59 212.849 1753.31 212.85 1740.87L212.512 1726.47C212.512 1704.21 215.213 1688.79 220.615 1680.22C226.02 1671.66 238.741 1667.38 258.778 1667.38L284.444 1666.53H293.899L316.862 1667.38C331.723 1667.38 342.501 1669.95 349.198 1675.09C355.895 1680.24 359.244 1690.16 359.245 1704.86V1706.89H325.814C325.87 1704.57 325.497 1702.25 324.713 1700.07C324.395 1699.18 323.879 1698.38 323.204 1697.73C322.529 1697.08 321.714 1696.6 320.824 1696.33C318.582 1695.63 316.291 1695.1 313.97 1694.74H305.507L265.739 1694.06C257.617 1694.06 252.484 1696.1 250.341 1700.18C247.777 1706.6 246.678 1713.53 247.127 1720.44V1731.14C246.763 1737.16 247.804 1743.19 250.167 1748.73C251.064 1750.53 252.377 1752.08 253.994 1753.25C255.611 1754.42 257.483 1755.18 259.451 1755.45L268.57 1756.32H307.239C311.978 1756.58 316.699 1755.55 320.918 1753.35C322.653 1752.11 324.024 1750.42 324.886 1748.46C325.748 1746.49 326.069 1744.32 325.814 1742.19V1738.88H282.249V1717.49L359.415 1717.49Z" fill="black"/>
<path d="M603.243 1781.8H565.083L627.896 1667.72H674.162L735.628 1781.8H697.804L687.164 1761.11H614.389L603.243 1781.8ZM626.377 1737.51H674.67L650.523 1692.35L626.377 1737.51Z" fill="black"/>
<path d="M1055.61 1753.24V1781.8H943.486V1667.72H977.766V1753.24H1055.61Z" fill="black"/>
<path d="M1291.5 1781.8H1253.34L1316.15 1667.72H1362.42L1423.88 1781.8H1386.06L1375.42 1761.11H1302.65L1291.5 1781.8ZM1314.63 1737.51H1362.93L1338.78 1692.35L1314.63 1737.51Z" fill="black"/>
<path d="M1773.75 1743.3C1773.75 1758.87 1770.91 1769.26 1765.22 1774.48C1759.54 1779.71 1748.31 1782.32 1731.54 1782.32L1705.36 1783L1684.09 1782.32C1661.46 1782.32 1646.91 1779.33 1640.44 1773.35C1633.96 1767.38 1630.73 1758.07 1630.73 1745.43L1629.72 1721.52C1629.72 1702.96 1632.42 1689.3 1637.82 1680.53C1643.22 1671.76 1654.25 1667.38 1670.91 1667.38L1703 1666.69H1726.13C1733.47 1666.78 1740.8 1667.24 1748.09 1668.08C1751.92 1668.26 1755.65 1669.44 1758.92 1671.49C1762.18 1673.54 1764.88 1676.4 1766.74 1679.81C1770.91 1688.55 1772.86 1698.21 1772.4 1707.91H1739.13C1739.38 1705.95 1739.16 1703.96 1738.5 1702.1C1737.84 1700.24 1736.76 1698.56 1735.34 1697.21C1731.69 1695.05 1727.48 1694.07 1723.26 1694.41H1686.79C1676.54 1694.41 1670.18 1696.36 1667.71 1700.27C1665.46 1704.18 1664.33 1712.29 1664.33 1724.59C1664.33 1737.02 1665.68 1745.18 1668.38 1749.09C1671.09 1753 1678.29 1754.95 1690 1754.95H1720.9C1725.97 1755.35 1731.04 1754.35 1735.59 1752.05C1738.52 1750.11 1739.98 1745.55 1739.98 1738.36H1773.58L1773.75 1743.3Z" fill="black"/>
<path d="M2028.05 1781.8V1696.28H1977.73V1667.72H2112.48V1696.28H2062.32V1781.8H2028.05Z" fill="black"/>
<path d="M2319.33 1781.8V1667.72H2353.6V1781.8H2319.33Z" fill="black"/>
<path d="M2712.59 1743.3C2712.59 1758.87 2709.74 1769.26 2704.06 1774.48C2698.38 1779.71 2687.15 1782.32 2670.37 1782.32L2644.2 1783L2622.92 1782.32C2600.3 1782.32 2585.75 1779.33 2579.28 1773.35C2572.81 1767.37 2569.57 1758.07 2569.56 1745.43L2568.55 1721.52C2568.55 1702.96 2571.25 1689.3 2576.66 1680.53C2582.06 1671.76 2593.09 1667.38 2609.75 1667.38L2641.84 1666.69H2664.97C2672.3 1666.78 2679.63 1667.24 2686.92 1668.08C2690.76 1668.26 2694.49 1669.44 2697.75 1671.49C2701.02 1673.54 2703.71 1676.4 2705.58 1679.81C2709.75 1688.55 2711.69 1698.21 2711.24 1707.91H2677.97C2678.22 1705.95 2678 1703.96 2677.34 1702.1C2676.68 1700.24 2675.59 1698.56 2674.17 1697.21C2670.52 1695.05 2666.31 1694.07 2662.1 1694.41H2625.62C2615.38 1694.41 2609.02 1696.36 2606.54 1700.27C2604.29 1704.18 2603.17 1712.29 2603.17 1724.59C2603.17 1737.02 2604.52 1745.18 2607.22 1749.09C2609.92 1753 2617.13 1754.95 2628.83 1754.95H2659.74C2664.8 1755.35 2669.88 1754.35 2674.42 1752.05C2677.35 1750.11 2678.82 1745.55 2678.81 1738.36H2712.42L2712.59 1743.3Z" fill="black"/>
</g>
<defs>
<clipPath id="clip0_40_31">
<rect width="3000" height="1426" fill="white" transform="translate(0 357)"/>
</clipPath>
</defs>
</svg>
